<?xml version="1.0" encoding="utf-8"?>
<!-- Generator: Adobe Illustrator 27.5.0, SVG Export Plug-In . SVG Version: 6.00 Build 0)  -->
<svg version="1.1" xmlns="http://www.w3.org/2000/svg" xmlns:xlink="http://www.w3.org/1999/xlink" x="0px" y="0px"
	 viewBox="0 0 2500 2000" style="enable-background:new 0 0 2500 2000;" xml:space="preserve">
<g id="BG">
	<g>
		<rect x="0" y="0" style="fill:#FFF0F2;" width="2500" height="2000"/>
	</g>
</g>
<g id="Layer_1">
	<g>
		<g>
			<path style="fill:#FC636B;" d="M1735.991,1237.452h-299.995l-149.778,181.283c-22.661,27.428-64.924,26.717-86.65-1.457
				l-138.669-179.826h-296.89c-133.223,0-241.221-107.998-241.221-241.221V488.922c0-133.223,107.998-241.221,241.221-241.221
				h971.982c133.223,0,241.221,107.998,241.221,241.221v507.309C1977.212,1129.454,1869.214,1237.452,1735.991,1237.452z"/>
			<g>
				<path style="fill:#FFFFFF;" d="M1526.915,825.192l-230.902,204.617c-19.175,16.992-48.019,16.992-67.194,0L997.916,825.192
					c-231.432-204.588,56.767-505.102,264.499-264.499C1442.884,305.031,1737.113,622.643,1526.915,825.192z"/>
			</g>
		</g>
		<ellipse style="opacity:0.16;fill:#ED1C24;" cx="1272.741" cy="1699.749" rx="375.023" ry="52.551"/>
	</g>
</g>
</svg>
